<svg width="200" height="52" viewBox="0 0 200 52" fill="none" xmlns="http://www.w3.org/2000/svg">
<g clip-path="url(#clip0_2018_7429)">
<path d="M127.734 12.7264H105.282L100.75 38.2532H108.866L110.348 30.0468H125.413C127.755 30.0468 129.474 29.5738 130.571 28.6603C131.667 27.7469 132.4 26.1091 132.8 23.7737L133.514 19.7267C134.318 15.0589 132.379 12.7264 127.734 12.7264ZM125.262 20.5308L124.894 22.4967C124.639 23.9925 124.165 24.43 122.7 24.43H111.329L112.352 18.5176H123.542C125.042 18.5235 125.517 19.035 125.262 20.5308Z" fill="url(#paint0_linear_2018_7429)"/>
<path d="M159.837 12.7264H137.386L132.85 38.2532H140.969L142.469 30.0468H150.147L154.573 38.2532H163.169L158.266 29.4644C162.469 29.2811 164.263 27.6907 165.03 23.1914L165.623 19.7267C166.421 15.0589 164.482 12.7264 159.837 12.7264ZM157.403 20.5278L157.036 22.4996C156.781 23.9777 156.307 24.43 154.807 24.43H143.471L144.494 18.5176H155.684C157.169 18.5235 157.644 19.035 157.403 20.5278Z" fill="url(#paint1_linear_2018_7429)"/>
<path d="M193.44 12.7264H176.911C171.902 12.7264 169.563 14.6568 168.647 19.7267L166.747 30.5198C165.831 35.5897 168.099 38.2532 173.108 38.2532H189.637C194.647 38.2532 196.985 36.3198 197.901 31.25L199.793 20.4569C200.717 15.387 198.45 12.7264 193.44 12.7264ZM191.466 21.8404L190.111 29.2811C189.815 31.0312 189.198 31.5781 187.443 31.5781H177.095C175.34 31.5781 174.792 30.8864 175.082 29.1363L176.437 21.6955C176.733 19.9455 177.35 19.3986 179.105 19.3986H189.453C191.196 19.3986 191.756 20.1022 191.466 21.8404Z" fill="url(#paint2_linear_2018_7429)"/>
<path d="M69.9185 12.7264H55.518L54.3709 19.2862H63.6165L61.8171 29.426C61.5207 31.1406 60.9041 31.6875 59.1493 31.6875H47.1914L46.0412 38.2532H61.3429C66.3525 38.2532 68.6913 36.3198 69.6073 31.25L72.8976 12.7264H69.9185Z" fill="url(#paint3_linear_2018_7429)"/>
<path d="M85.4364 19.2892H101.378L102.564 12.7264H83.2428C78.2332 12.7264 75.8944 14.6568 74.9784 19.7267L71.6881 38.2532H79.8072L81.3783 29.5088H98.1176L99.1788 23.5284H82.4306L82.8367 21.1812C83.1658 19.7563 83.8209 19.2892 85.4364 19.2892Z" fill="url(#paint4_linear_2018_7429)"/>
<path d="M20.8092 25.5061L22.5018 15.9842C23.2973 11.5045 25.6492 7.44735 29.1449 4.52448C32.6406 1.60161 37.0567 -0.000235015 41.6185 2.58622e-08V2.58622e-08L37.0861 25.5061H20.8092Z" fill="url(#paint5_linear_2018_7429)"/>
<path d="M20.8093 25.5061L19.1167 35.028C18.3212 39.5076 15.9693 43.5648 12.4736 46.4877C8.97792 49.4105 4.56177 51.0124 0 51.0122H0L4.53239 25.5061H20.8093Z" fill="url(#paint6_linear_2018_7429)"/>
</g>
<defs>
<linearGradient id="paint0_linear_2018_7429" x1="100.75" y1="25.8011" x2="133.691" y2="25.8011" gradientUnits="userSpaceOnUse">
<stop stop-color="#343842"/>
<stop offset="1" stop-color="#161B24"/>
</linearGradient>
<linearGradient id="paint1_linear_2018_7429" x1="132.85" y1="25.8011" x2="165.798" y2="25.8011" gradientUnits="userSpaceOnUse">
<stop stop-color="#343842"/>
<stop offset="1" stop-color="#161B24"/>
</linearGradient>
<linearGradient id="paint2_linear_2018_7429" x1="166.548" y1="25.8011" x2="199.995" y2="25.8011" gradientUnits="userSpaceOnUse">
<stop stop-color="#343842"/>
<stop offset="1" stop-color="#161B24"/>
</linearGradient>
<linearGradient id="paint3_linear_2018_7429" x1="46.0412" y1="25.8011" x2="72.8976" y2="25.8011" gradientUnits="userSpaceOnUse">
<stop stop-color="#343842"/>
<stop offset="1" stop-color="#161B24"/>
</linearGradient>
<linearGradient id="paint4_linear_2018_7429" x1="71.6881" y1="25.8011" x2="102.564" y2="25.8011" gradientUnits="userSpaceOnUse">
<stop stop-color="#343842"/>
<stop offset="1" stop-color="#161B24"/>
</linearGradient>
<linearGradient id="paint5_linear_2018_7429" x1="20.8092" y1="13.0641" x2="41.6185" y2="13.0641" gradientUnits="userSpaceOnUse">
<stop stop-color="#343842"/>
<stop offset="1" stop-color="#161B24"/>
</linearGradient>
<linearGradient id="paint6_linear_2018_7429" x1="0" y1="38.5702" x2="20.8093" y2="38.5702" gradientUnits="userSpaceOnUse">
<stop stop-color="#343842"/>
<stop offset="1" stop-color="#161B24"/>
</linearGradient>
<clipPath id="clip0_2018_7429">
<rect width="200" height="51.0121" fill="white"/>
</clipPath>
</defs>
</svg>
