<svg width="144" height="38" viewBox="0 0 144 38" fill="none" xmlns="http://www.w3.org/2000/svg">
<g clip-path="url(#clip0_802_2040)">
<path d="M91.9683 9.24649H75.8032L72.5399 27.7932H78.3836L79.4507 21.8307H90.2971C91.9832 21.8307 93.2211 21.4871 94.0108 20.8234C94.8005 20.1597 95.3276 18.9698 95.6158 17.273L96.1301 14.3326C96.7085 10.9411 95.3127 9.24649 91.9683 9.24649ZM90.1883 14.9168L89.9236 16.3451C89.7401 17.4319 89.3986 17.7498 88.3443 17.7498H80.1572L80.8935 13.4541H88.9504C90.0304 13.4584 90.3718 13.83 90.1883 14.9168Z" fill="white"/>
<path d="M115.083 9.24649H98.9175L95.6521 27.7932H101.498L102.578 21.8307H108.106L111.292 27.7932H117.482L113.951 21.4076C116.978 21.2744 118.269 20.1189 118.822 16.8499L119.249 14.3326C119.823 10.9411 118.427 9.24649 115.083 9.24649ZM113.33 14.9147L113.066 16.3473C112.882 17.4212 112.541 17.7498 111.461 17.7498H103.299L104.036 13.4541H112.092C113.162 13.4584 113.503 13.83 113.33 14.9147Z" fill="white"/>
<path d="M139.277 9.24649H127.376C123.769 9.24649 122.085 10.649 121.426 14.3326L120.058 22.1744C119.398 25.858 121.031 27.7932 124.638 27.7932H136.539C140.145 27.7932 141.829 26.3885 142.489 22.7049L143.851 14.8631C144.517 11.1796 142.884 9.24649 139.277 9.24649ZM137.855 15.8683L136.88 21.2744C136.667 22.546 136.223 22.9433 134.959 22.9433H127.508C126.245 22.9433 125.85 22.4407 126.059 21.1692L127.035 15.7631C127.248 14.4915 127.692 14.0942 128.955 14.0942H136.406C137.661 14.0942 138.065 14.6054 137.855 15.8683Z" fill="white"/>
<path d="M50.3413 9.24649H39.973L39.147 14.0126H45.8038L44.5083 21.3797C44.2949 22.6254 43.8509 23.0228 42.5875 23.0228H33.9778L33.1497 27.7932H44.1668C47.7738 27.7932 49.4577 26.3885 50.1172 22.7049L52.4863 9.24649H50.3413Z" fill="white"/>
<path d="M61.5143 14.0147H72.9924L73.8462 9.24649H59.9349C56.328 9.24649 54.644 10.649 53.9845 14.3326L51.6155 27.7932H57.4613L58.5924 21.4398H70.6447L71.4088 17.0947H59.3501L59.6425 15.3893C59.8794 14.3541 60.3511 14.0147 61.5143 14.0147Z" fill="white"/>
<path d="M14.9827 18.5316L16.2013 11.6134C16.7741 8.35871 18.4675 5.41093 20.9843 3.2873C23.5012 1.16366 26.6809 -0.000170752 29.9653 1.87904e-08V1.87904e-08L26.702 18.5316H14.9827Z" fill="white"/>
<path d="M14.9827 18.5316L13.764 25.4499C13.1912 28.7046 11.4979 31.6524 8.98099 33.776C6.4641 35.8996 3.28447 37.0635 0 37.0633H0L3.26332 18.5316H14.9827Z" fill="white"/>
</g>
<defs>
<clipPath id="clip0_802_2040">
<rect width="144" height="37.0633" fill="white"/>
</clipPath>
</defs>
</svg>
